<svg width="14" height="14" viewBox="0 0 14 14" fill="none" xmlns="http://www.w3.org/2000/svg">
<path d="M0 1.75C0 1.28587 0.184374 0.840752 0.512563 0.512563C0.840752 0.184374 1.28587 0 1.75 0L12.25 0C12.7141 0 13.1592 0.184374 13.4874 0.512563C13.8156 0.840752 14 1.28587 14 1.75V8.75C14 9.21413 13.8156 9.65925 13.4874 9.98744C13.1592 10.3156 12.7141 10.5 12.25 10.5H3.86225C3.6302 10.5 3.40768 10.5923 3.24362 10.7564L0.74725 13.2528C0.686114 13.314 0.60817 13.3558 0.523282 13.3728C0.438393 13.3898 0.350378 13.3812 0.270374 13.3481C0.190371 13.315 0.121977 13.259 0.0738476 13.187C0.0257185 13.1151 1.8388e-05 13.0304 0 12.9439L0 1.75ZM3.0625 2.625C2.94647 2.625 2.83519 2.67109 2.75314 2.75314C2.67109 2.83519 2.625 2.94647 2.625 3.0625C2.625 3.17853 2.67109 3.28981 2.75314 3.37186C2.83519 3.45391 2.94647 3.5 3.0625 3.5H10.9375C11.0535 3.5 11.1648 3.45391 11.2469 3.37186C11.3289 3.28981 11.375 3.17853 11.375 3.0625C11.375 2.94647 11.3289 2.83519 11.2469 2.75314C11.1648 2.67109 11.0535 2.625 10.9375 2.625H3.0625ZM3.0625 4.8125C2.94647 4.8125 2.83519 4.85859 2.75314 4.94064C2.67109 5.02269 2.625 5.13397 2.625 5.25C2.625 5.36603 2.67109 5.47731 2.75314 5.55936C2.83519 5.64141 2.94647 5.6875 3.0625 5.6875H10.9375C11.0535 5.6875 11.1648 5.64141 11.2469 5.55936C11.3289 5.47731 11.375 5.36603 11.375 5.25C11.375 5.13397 11.3289 5.02269 11.2469 4.94064C11.1648 4.85859 11.0535 4.8125 10.9375 4.8125H3.0625ZM3.0625 7C2.94647 7 2.83519 7.04609 2.75314 7.12814C2.67109 7.21019 2.625 7.32147 2.625 7.4375C2.625 7.55353 2.67109 7.66481 2.75314 7.74686C2.83519 7.82891 2.94647 7.875 3.0625 7.875H7.4375C7.55353 7.875 7.66481 7.82891 7.74686 7.74686C7.82891 7.66481 7.875 7.55353 7.875 7.4375C7.875 7.32147 7.82891 7.21019 7.74686 7.12814C7.66481 7.04609 7.55353 7 7.4375 7H3.0625Z" fill="#263238"/>
</svg>
