<svg width="10" height="10" viewBox="0 0 10 10" fill="none" xmlns="http://www.w3.org/2000/svg">
<path d="M5 10C7.76142 10 10 7.76142 10 5C10 2.23858 7.76142 0 5 0C2.23858 0 0 2.23858 0 5C0 7.76142 2.23858 10 5 10Z" fill="#FFE14D"/>
<path d="M10 5C10 2.24299 7.75701 0 5 0V10C7.75701 10 10 7.75701 10 5Z" fill="#FFBB33"/>
<path d="M5 8.80859C2.9 8.80859 1.19141 7.1 1.19141 5C1.19141 2.9 2.9 1.19141 5 1.19141C7.1 1.19141 8.80859 2.9 8.80859 5C8.80859 7.1 7.1 8.80859 5 8.80859Z" fill="#FFBB33"/>
<path d="M8.80859 5C8.80859 2.9 7.1 1.19141 5 1.19141V8.80859C7.1 8.80859 8.80859 7.1 8.80859 5Z" fill="#E68A2E"/>
</svg>
