<svg width="20" height="20" viewBox="0 0 20 20" fill="none" xmlns="http://www.w3.org/2000/svg">
<path d="M20 3.33337H0V16.6669H20V3.33337Z" fill="#F0F0F0"/>
<path d="M11.25 3.33313H8.75V8.74977H0V11.2498H8.75V16.6664H11.25V11.2498H20V8.74977H11.25V3.33313Z" fill="#D80027"/>
<path d="M15.3822 12.3186L20 14.8841V12.3186H15.3822Z" fill="#0052B4"/>
<path d="M12.1739 12.3186L20 16.6664V15.437L14.387 12.3186H12.1739Z" fill="#0052B4"/>
<path d="M17.9154 16.6664L12.1739 13.4764V16.6664H17.9154Z" fill="#0052B4"/>
<path d="M12.1739 12.3186L20 16.6664V15.437L14.387 12.3186H12.1739Z" fill="#F0F0F0"/>
<path d="M12.1739 12.3186L20 16.6664V15.437L14.387 12.3186H12.1739Z" fill="#D80027"/>
<path d="M3.52895 12.3186L0 14.2792V12.3186H3.52895Z" fill="#0052B4"/>
<path d="M7.82608 12.8715V16.6664H0.995728L7.82608 12.8715Z" fill="#0052B4"/>
<path d="M5.61301 12.3186L0 15.437V16.6664L7.82609 12.3186H5.61301Z" fill="#D80027"/>
<path d="M4.61777 7.68095L0 5.11548V7.68095H4.61777Z" fill="#0052B4"/>
<path d="M7.82609 7.68094L0 3.33313V4.56258L5.61301 7.68094H7.82609Z" fill="#0052B4"/>
<path d="M2.08459 3.33313L7.82608 6.52313V3.33313H2.08459Z" fill="#0052B4"/>
<path d="M7.82609 7.68094L0 3.33313V4.56258L5.61301 7.68094H7.82609Z" fill="#F0F0F0"/>
<path d="M7.82609 7.68094L0 3.33313V4.56258L5.61301 7.68094H7.82609Z" fill="#D80027"/>
<path d="M16.471 7.68113L20 5.72058V7.68113H16.471Z" fill="#0052B4"/>
<path d="M12.1739 7.12821V3.33325H19.0042L12.1739 7.12821Z" fill="#0052B4"/>
<path d="M14.387 7.68094L20 4.56258V3.33313L12.1739 7.68094H14.387Z" fill="#D80027"/>
</svg>
