<svg width="14" height="12" viewBox="0 0 14 12" fill="none" xmlns="http://www.w3.org/2000/svg">
<path d="M1.16083 6.98401C0.97981 6.98379 0.803652 7.05431 0.658997 7.18491C0.514343 7.3155 0.409059 7.49907 0.359068 7.70785C0.309077 7.91662 0.317097 8.13926 0.381915 8.34208C0.446733 8.5449 0.564825 8.71688 0.718331 8.83201L2.95833 11.52C3.03576 11.6129 3.12766 11.6865 3.2288 11.7367C3.32994 11.7869 3.43834 11.8128 3.54779 11.8127C3.65725 11.8127 3.76563 11.7867 3.86674 11.7364C3.96785 11.6861 4.05971 11.6124 4.13708 11.5195C4.21445 11.4266 4.27581 11.3163 4.31767 11.1949C4.35952 11.0736 4.38104 10.9435 4.381 10.8122C4.38096 10.6808 4.35936 10.5508 4.31744 10.4294C4.27552 10.3081 4.21409 10.1979 4.13666 10.105L3.2025 8.98501H9.49416C9.71518 8.98501 9.92714 8.87965 10.0834 8.69212C10.2397 8.50458 10.3275 8.25023 10.3275 7.98501C10.3275 7.71979 10.2397 7.46544 10.0834 7.2779C9.92714 7.09037 9.71518 6.98501 9.49416 6.98501H1.16083V6.98401Z" fill="black"/>
<path d="M12.8392 5.01602C13.0202 5.01624 13.1963 4.94572 13.341 4.81512C13.4856 4.68453 13.5909 4.50096 13.6409 4.29218C13.6909 4.08341 13.6829 3.86077 13.6181 3.65795C13.5533 3.45513 13.4352 3.28315 13.2817 3.16802L11.0417 0.48002C10.8853 0.292512 10.6732 0.187223 10.4522 0.187317C10.2311 0.187411 10.0192 0.292879 9.8629 0.48052C9.70665 0.668161 9.61891 0.922603 9.61898 1.18787C9.61906 1.45314 9.70695 1.70751 9.86332 1.89502L10.7975 3.01502H4.50582C4.2848 3.01502 4.07284 3.12038 3.91656 3.30791C3.76028 3.49545 3.67249 3.7498 3.67249 4.01502C3.67249 4.28024 3.76028 4.53459 3.91656 4.72213C4.07284 4.90966 4.2848 5.01502 4.50582 5.01502H12.8392V5.01602Z" fill="black"/>
</svg>
