<svg width="24" height="22" viewBox="0 0 24 22" fill="none" xmlns="http://www.w3.org/2000/svg">
<path d="M9.00302 7.25C9.00302 7.84674 8.76597 8.41903 8.34401 8.84099C7.92205 9.26295 7.34976 9.5 6.75302 9.5C6.15628 9.5 5.58399 9.26295 5.16203 8.84099C4.74007 8.41903 4.50302 7.84674 4.50302 7.25C4.50302 6.65326 4.74007 6.08097 5.16203 5.65901C5.58399 5.23705 6.15628 5 6.75302 5C7.34976 5 7.92205 5.23705 8.34401 5.65901C8.76597 6.08097 9.00302 6.65326 9.00302 7.25Z" fill="#263238"/>
<path d="M3.00302 0.5C2.20737 0.5 1.44431 0.816071 0.881701 1.37868C0.319092 1.94129 0.00302124 2.70435 0.00302124 3.5V18.5C0.00302124 19.2956 0.319092 20.0587 0.881701 20.6213C1.44431 21.1839 2.20737 21.5 3.00302 21.5H21.003C21.7987 21.5 22.5617 21.1839 23.1243 20.6213C23.687 20.0587 24.003 19.2956 24.003 18.5V3.5C24.003 2.70435 23.687 1.94129 23.1243 1.37868C22.5617 0.816071 21.7987 0.5 21.003 0.5H3.00302ZM21.003 2C21.4008 2 21.7824 2.15804 22.0637 2.43934C22.345 2.72064 22.503 3.10218 22.503 3.5V13.25L16.8375 10.3295C16.6969 10.259 16.5376 10.2346 16.3823 10.2596C16.2269 10.2847 16.0834 10.3579 15.972 10.469L10.407 16.034L6.41702 13.376C6.27296 13.2801 6.10016 13.237 5.92793 13.2539C5.75569 13.2709 5.59462 13.3468 5.47202 13.469L1.50302 17V3.5C1.50302 3.10218 1.66106 2.72064 1.94236 2.43934C2.22367 2.15804 2.6052 2 3.00302 2H21.003Z" fill="#263238"/>
</svg>
