<svg width="20" height="20" viewBox="0 0 20 20" fill="none" xmlns="http://www.w3.org/2000/svg">
<path d="M14.7168 13.6366C14.1882 13.6366 13.7598 13.2081 13.7598 12.6795V7.10669C13.7598 5.22844 12.2317 3.70032 10.3534 3.70032C8.47515 3.70032 6.94702 5.2284 6.94702 7.10669V10.348C6.94702 10.8765 6.51854 11.305 5.98999 11.305C5.46144 11.305 5.03296 10.8765 5.03296 10.348V7.10669C5.03296 4.17297 7.41968 1.78625 10.3534 1.78625C13.2871 1.78625 15.6738 4.17297 15.6738 7.10669V12.6795C15.6738 13.2081 15.2453 13.6366 14.7168 13.6366Z" fill="#B1B4B5"/>
<path d="M16.1764 19.432H4.5304C3.44309 19.432 2.56165 18.5505 2.56165 17.4632V10.7301C2.56165 9.6428 3.44309 8.76135 4.5304 8.76135H16.1764C17.2637 8.76135 18.1452 9.6428 18.1452 10.7301V17.4632C18.1452 18.5505 17.2637 19.432 16.1764 19.432Z" fill="#FFB636"/>
<path d="M4.27002 17.8454H4.17139C3.86072 17.8454 3.60889 17.5935 3.60889 17.2829V10.9105C3.60889 10.5999 3.86072 10.348 4.17139 10.348H4.27002C4.58068 10.348 4.83252 10.5999 4.83252 10.9105V17.2829C4.83252 17.5935 4.58068 17.8454 4.27002 17.8454Z" fill="#FFD469"/>
</svg>
