<svg width="21" height="21" viewBox="0 0 21 21" fill="none" xmlns="http://www.w3.org/2000/svg">
<path d="M1.16667 11.6667H8.16667C8.47609 11.6667 8.77283 11.5437 8.99162 11.325C9.21042 11.1062 9.33333 10.8094 9.33333 10.5V1.16667C9.33333 0.857247 9.21042 0.560501 8.99162 0.341709C8.77283 0.122916 8.47609 0 8.16667 0H1.16667C0.857247 0 0.560501 0.122916 0.341709 0.341709C0.122916 0.560501 0 0.857247 0 1.16667V10.5C0 10.8094 0.122916 11.1062 0.341709 11.325C0.560501 11.5437 0.857247 11.6667 1.16667 11.6667ZM0 19.8333C0 20.1428 0.122916 20.4395 0.341709 20.6583C0.560501 20.8771 0.857247 21 1.16667 21H8.16667C8.47609 21 8.77283 20.8771 8.99162 20.6583C9.21042 20.4395 9.33333 20.1428 9.33333 19.8333V15.1667C9.33333 14.8572 9.21042 14.5605 8.99162 14.3417C8.77283 14.1229 8.47609 14 8.16667 14H1.16667C0.857247 14 0.560501 14.1229 0.341709 14.3417C0.122916 14.5605 0 14.8572 0 15.1667V19.8333ZM11.6667 19.8333C11.6667 20.1428 11.7896 20.4395 12.0084 20.6583C12.2272 20.8771 12.5239 21 12.8333 21H19.8333C20.1428 21 20.4395 20.8771 20.6583 20.6583C20.8771 20.4395 21 20.1428 21 19.8333V11.6667C21 11.3572 20.8771 11.0605 20.6583 10.8417C20.4395 10.6229 20.1428 10.5 19.8333 10.5H12.8333C12.5239 10.5 12.2272 10.6229 12.0084 10.8417C11.7896 11.0605 11.6667 11.3572 11.6667 11.6667V19.8333ZM12.8333 8.16667H19.8333C20.1428 8.16667 20.4395 8.04375 20.6583 7.82496C20.8771 7.60616 21 7.30942 21 7V1.16667C21 0.857247 20.8771 0.560501 20.6583 0.341709C20.4395 0.122916 20.1428 0 19.8333 0H12.8333C12.5239 0 12.2272 0.122916 12.0084 0.341709C11.7896 0.560501 11.6667 0.857247 11.6667 1.16667V7C11.6667 7.30942 11.7896 7.60616 12.0084 7.82496C12.2272 8.04375 12.5239 8.16667 12.8333 8.16667Z" fill="#929292"/>
</svg>
