<svg width="22" height="18" viewBox="0 0 22 18" fill="none" xmlns="http://www.w3.org/2000/svg">
<path d="M14.9428 5.2215C15.2983 5.6865 15.2983 6.31425 14.9428 6.7785C13.823 8.24025 11.1365 11.25 8.00001 11.25C4.86351 11.25 2.17701 8.24025 1.05726 6.7785C0.884296 6.55585 0.790405 6.28194 0.790405 6C0.790405 5.71806 0.884296 5.44415 1.05726 5.2215C2.17701 3.75975 4.86351 0.75 8.00001 0.75C11.1365 0.75 13.823 3.75975 14.9428 5.2215V5.2215Z" stroke="#263238" stroke-linecap="round" stroke-linejoin="round"/>
<path d="M8 8.25C9.24264 8.25 10.25 7.24264 10.25 6C10.25 4.75736 9.24264 3.75 8 3.75C6.75736 3.75 5.75 4.75736 5.75 6C5.75 7.24264 6.75736 8.25 8 8.25Z" stroke="#263238" stroke-linecap="round" stroke-linejoin="round"/>
</svg>
