<svg width="15" height="15" viewBox="0 0 15 15" fill="none" xmlns="http://www.w3.org/2000/svg">
<path fill-rule="evenodd" clip-rule="evenodd" d="M7.50001 0.849976C7.3674 0.849976 7.24023 0.902654 7.14646 0.996422C7.05269 1.09019 7.00001 1.21737 7.00001 1.34998V3.52198C7.00001 3.65458 7.05269 3.78176 7.14646 3.87553C7.24023 3.9693 7.3674 4.02198 7.50001 4.02198C7.63262 4.02198 7.7598 3.9693 7.85357 3.87553C7.94733 3.78176 8.00001 3.65458 8.00001 3.52198V1.87198C9.2608 1.98409 10.4474 2.51631 11.3696 3.38332C12.2918 4.25032 12.8962 5.40188 13.0858 6.65336C13.2754 7.90484 13.0393 9.18374 12.4153 10.285C11.7914 11.3863 10.8157 12.2462 9.64468 12.7267C8.4737 13.2073 7.17526 13.2807 5.95755 12.9353C4.73984 12.5898 3.6734 11.8455 2.92922 10.8216C2.18504 9.79769 1.80623 8.55356 1.85352 7.28868C1.9008 6.02381 2.37146 4.81144 3.19001 3.84598C3.23463 3.79625 3.26883 3.73808 3.29059 3.67491C3.31235 3.61175 3.32123 3.54486 3.31671 3.4782C3.31219 3.41154 3.29435 3.34647 3.26425 3.28682C3.23415 3.22717 3.19241 3.17416 3.14148 3.13092C3.09055 3.08767 3.03147 3.05508 2.96773 3.03505C2.90399 3.01502 2.83689 3.00797 2.77038 3.01432C2.70387 3.02066 2.6393 3.04027 2.5805 3.07199C2.5217 3.1037 2.46985 3.14688 2.42801 3.19898C1.4481 4.35452 0.892153 5.81004 0.852198 7.32461C0.812243 8.83918 1.29067 10.322 2.2083 11.5276C3.12593 12.7332 4.42773 13.5893 5.89822 13.9542C7.36871 14.3191 8.91973 14.171 10.2945 13.5342C11.6694 12.8975 12.7855 11.8104 13.4583 10.4529C14.1311 9.09538 14.3201 7.54881 13.9941 6.0692C13.6682 4.58958 12.8467 3.26565 11.6657 2.31652C10.4848 1.3674 9.01511 0.850004 7.50001 0.849976ZM6.74001 8.07998L4.22401 4.57298C4.19051 4.52483 4.17501 4.46645 4.1802 4.40803C4.1854 4.34961 4.21097 4.29488 4.25244 4.25341C4.29392 4.21194 4.34865 4.18637 4.40707 4.18117C4.46548 4.17597 4.52387 4.19148 4.57201 4.22498L8.08101 6.73998C8.19391 6.82126 8.2878 6.92611 8.35617 7.04727C8.42454 7.16844 8.46576 7.30301 8.47697 7.44167C8.48819 7.58034 8.46913 7.71979 8.42112 7.85036C8.37311 7.98094 8.29729 8.09951 8.19892 8.19789C8.10055 8.29626 7.98197 8.37207 7.8514 8.42008C7.72083 8.4681 7.58138 8.48715 7.44271 8.47594C7.30404 8.46472 7.16947 8.4235 7.04831 8.35513C6.92715 8.28676 6.8223 8.19288 6.74101 8.07998H6.74001Z" fill="#D60606"/>
</svg>
