<svg width="24" height="24" viewBox="0 0 24 24" fill="none" xmlns="http://www.w3.org/2000/svg">
<path fill-rule="evenodd" clip-rule="evenodd" d="M19.6364 0C22.0463 0 24 1.95367 24 4.36364V19.6364C24 22.0463 22.0463 24 19.6364 24H4.36364C1.95367 24 0 22.0463 0 19.6364V4.36364C0 1.95367 1.95367 0 4.36364 0H19.6364ZM19.6364 2.18182H4.36364C3.15866 2.18182 2.18182 3.15865 2.18182 4.36364V15.7805C2.18182 15.901 2.27951 15.9987 2.40001 15.9987C2.43407 15.9987 2.46765 15.9907 2.49808 15.9754L9.05848 12.6742C10.909 11.7426 13.0913 11.7422 14.9422 12.6729L21.502 15.9712C21.6097 16.0253 21.7408 15.9819 21.7949 15.8743C21.8102 15.8439 21.8182 15.8103 21.8182 15.7763V4.36364C21.8182 3.15865 20.8414 2.18182 19.6364 2.18182ZM7.09086 4.36364C8.59709 4.36364 9.81813 5.58468 9.81813 7.09091C9.81813 8.59714 8.59709 9.81818 7.09086 9.81818C5.58463 9.81818 4.36359 8.59714 4.36359 7.09091C4.36359 5.58468 5.58463 4.36364 7.09086 4.36364Z" fill="#263238"/>
</svg>
