<svg width="25" height="25" viewBox="0 0 25 25" fill="none" xmlns="http://www.w3.org/2000/svg">
<path d="M12.5 5C11.61 5 10.74 5.26392 9.99994 5.75839C9.25991 6.25285 8.68314 6.95566 8.34254 7.77792C8.00195 8.60019 7.91283 9.50499 8.08647 10.3779C8.2601 11.2508 8.68869 12.0526 9.31802 12.682C9.94736 13.3113 10.7492 13.7399 11.6221 13.9135C12.495 14.0872 13.3998 13.998 14.2221 13.6575C15.0443 13.3169 15.7471 12.7401 16.2416 12.0001C16.7361 11.26 17 10.39 17 9.5C17 8.30652 16.5259 7.16193 15.682 6.31802C14.8381 5.47411 13.6935 5 12.5 5Z" fill="#8C8C8C"/>
<path d="M12.5 0C10.0277 0 7.61099 0.733112 5.55538 2.10663C3.49976 3.48015 1.89761 5.43238 0.951511 7.71646C0.0054161 10.0005 -0.242126 12.5139 0.24019 14.9386C0.722505 17.3634 1.91301 19.5907 3.66117 21.3388C5.40933 23.087 7.63661 24.2775 10.0614 24.7598C12.4861 25.2421 14.9995 24.9946 17.2835 24.0485C19.5676 23.1024 21.5199 21.5002 22.8934 19.4446C24.2669 17.389 25 14.9723 25 12.5C24.9962 9.18595 23.678 6.00873 21.3347 3.66534C18.9913 1.32196 15.814 0.003781 12.5 0ZM19.6357 20.4696C19.6179 19.2985 19.1408 18.1812 18.3071 17.3586C17.4734 16.5359 16.3498 16.0736 15.1786 16.0714H9.82143C8.65017 16.0736 7.52664 16.5359 6.69294 17.3586C5.85924 18.1812 5.38208 19.2985 5.36429 20.4696C3.74515 19.0239 2.60334 17.1204 2.09004 15.0113C1.57674 12.9022 1.71617 10.6869 2.48986 8.6588C3.26356 6.63069 4.63502 4.88542 6.42266 3.65408C8.21029 2.42274 10.3298 1.76342 12.5004 1.76342C14.6711 1.76342 16.7906 2.42274 18.5782 3.65408C20.3659 4.88542 21.7373 6.63069 22.511 8.6588C23.2847 10.6869 23.4242 12.9022 22.9109 15.0113C22.3976 17.1204 21.2557 19.0239 19.6366 20.4696H19.6357Z" fill="#8C8C8C"/>
</svg>
